# xmcd CD database file
#
# Track frame offsets:
#	150
#	23820
#	46270
#	64777
#	93832
#	119690
#	139000
#	157317
#	176557
#	196935
#
# Disc length: 2888 seconds
#
# Revision: 0
# Processed by: cddbd v1.5.1PL0 Copyright (c) Steve Scherf et al.
# Submitted via: CDex 1.51
#
DISCID=880b460a
DTITLE=桐島かれん - ディスコ桐島
DYEAR=1991
DGENRE=JPop
TTITLE0=媚薬
TTITLE1=しのび逢い
TTITLE2=私は私
TTITLE3=夢
TTITLE4=ハッピーネーション
TTITLE5=不思議ねふたり
TTITLE6=炎
TTITLE7=心
TTITLE8=カレンダー
TTITLE9=GYPSY WOMAN
EXTD=YEAR: 1991
EXTT0=
EXTT1=
EXTT2=
EXTT3=
EXTT4=
EXTT5=
EXTT6=
EXTT7=
EXTT8=
EXTT9=
PLAYORDER=
